<svg width="36" height="36" viewBox="0 0 36 36" fill="none" xmlns="http://www.w3.org/2000/svg">
    <rect width="36" height="36" rx="12" fill="#0A0A0A" />
    <path d="M18 10C14.6863 10 12 12.6863 12 16C12 19.3137 14.6863 22 18 22C21.3137 22 24 19.3137 24 16H26C26 20.4183 22.4183 24 18 24C13.5817 24 10 20.4183 10 16C10 11.5817 13.5817 8 18 8V6L22 10L18 14V10ZM18 26C21.3137 26 24 23.3137 24 20C24 16.6863 21.3137 14 18 14C14.6863 14 12 16.6863 12 20H10C10 15.5817 13.5817 12 18 12C22.4183 12 26 15.5817 26 20C26 24.4183 22.4183 28 18 28V30L14 26L18 22V26Z" fill="white"/>
</svg>