<svg width="36" height="36" viewBox="0 0 36 36" fill="none" xmlns="http://www.w3.org/2000/svg">
    <rect width="36" height="36" rx="12" fill="#0A0A0A" />
    <path d="M18 9C14.134 9 11 12.134 11 16C11 17.5858 11.621 19.0984 12.7212 20.2798L18 25.5586L23.2788 20.2798C24.379 19.0984 25 17.5858 25 16C25 12.134 21.866 9 18 9ZM18 11C20.7614 11 23 13.2386 23 16C23 18.7614 20.7614 21 18 21C15.2386 21 13 18.7614 13 16C13 13.2386 15.2386 11 18 11ZM18 14C16.8954 14 16 14.8954 16 16C16 17.1046 16.8954 18 18 18C19.1046 18 20 17.1046 20 16C20 14.8954 19.1046 14 18 14Z" fill="white"/>
</svg>